<?xml version="1.0" encoding="UTF-8" standalone="no"?>
<!-- Created with Inkscape (http://www.inkscape.org/) -->

<svg
   version="1.1"
   id="svg1"
   width="2048"
   height="2048"
   viewBox="0 0 2048 2048"
   sodipodi:docname="logo.svg"
   inkscape:version="1.4.3 (0d15f75, 2025-12-25)"
   xmlns:inkscape="http://www.inkscape.org/namespaces/inkscape"
   xmlns:sodipodi="http://sodipodi.sourceforge.net/DTD/sodipodi-0.dtd"
   xmlns="http://www.w3.org/2000/svg"
   xmlns:svg="http://www.w3.org/2000/svg">
  <defs
     id="defs1" />
  <sodipodi:namedview
     id="namedview1"
     pagecolor="#ffffff"
     bordercolor="#000000"
     borderopacity="0.25"
     inkscape:showpageshadow="2"
     inkscape:pageopacity="0.0"
     inkscape:pagecheckerboard="0"
     inkscape:deskcolor="#d1d1d1"
     inkscape:zoom="0.39404297"
     inkscape:cx="1024"
     inkscape:cy="1024"
     inkscape:window-width="1920"
     inkscape:window-height="1009"
     inkscape:window-x="4472"
     inkscape:window-y="253"
     inkscape:window-maximized="1"
     inkscape:current-layer="g1" />
  <g
     inkscape:groupmode="layer"
     inkscape:label="Image"
     id="g1">
    <path
       style="fill:#050504;stroke:none"
       d="m 1705,1625 c -16.0792,22.826 -39.9548,42.7361 -60.0039,62.0402 C 1579.481,1750.1206 1503.2046,1802.1121 1421,1840.9414 1131.3063,1977.7782 781.8548,1950.8137 519,1766.2793 443.85172,1713.5222 377.52344,1648.9597 321.88428,1576 245.94649,1476.4226 195.12018,1362.0562 164.89507,1241 150.98485,1185.2875 144.46463,1127.1829 141.96065,1070 134.92422,909.31055 166.06935,745.81067 240.25848,602 327.64511,432.60693 471.6842,292.48645 643,209.10803 c 96.54407,-46.98742 201.31738,-74.77832 308,-84.93823 189.6495,-18.06128 385.4674,27.44019 548,127.01916 22.7538,13.94056 44.4504,29.24097 66,44.96229 6.3188,4.60986 17.2455,18.10852 25,18.93127 3.9186,0.41577 7.3625,-4.51465 9.7145,-6.99304 6.5379,-6.88965 13.5719,-13.36206 20.2855,-20.08948 2.326,-2.33081 6.6521,-5.45935 7.0787,-8.98535 0.7389,-6.10632 -16.6818,-16.34204 -21.0787,-19.80396 -23.6514,-18.6217 -48.2081,-36.04358 -74,-51.60962 C 1424.4814,142.71082 1308.0757,99.034302 1184,78.753906 1017.5466,51.546753 843.35986,69.857788 686,130.81104 477.35846,211.62817 297.51212,371.64429 195.25772,571 64.876923,825.19116 50.258224,1129.5315 156.44907,1395 c 36.33114,90.825 88.03271,175.4268 149.97531,251 56.56607,69.0137 125.03094,127.7358 198.57562,177.9714 81.73822,55.8323 175.02838,96.5302 270,123.6011 117.23608,33.4172 240.1068,40.9646 361,29.2577 127.1766,-12.3153 250.9502,-53.5245 363,-114.1388 122.8336,-66.4479 226.509,-165.931 308.8843,-277.6914 18.3478,-24.8928 38.0085,-48.7024 52.807,-76 27.0206,-49.843 35.6809,-109.4525 25.845,-165 -4.8677,-27.4894 -15.4633,-55.0688 -29.737,-79 -13.9437,-23.3779 -31.7207,-44.3054 -52.7993,-61.5757 -110.5175,-90.5492 -281.7439,-64.9086 -359.3079,55.5757 -45.0882,70.0381 -50.4906,160.8782 -14.9112,236 46.3284,97.8169 169.484,159.7249 275.2191,130 M 1823,155 c -3.4589,6.47986 -10.5706,10.6239 -15.5363,15.9491 -15.1585,16.25586 -31.7282,31.31543 -47.4637,47.0509 -48.6348,48.63477 -97.9879,96.79736 -145.9854,146 -105.348,107.99341 -212.4914,214.18408 -318,321.99927 C 1245.5756,737.54102 1195.9884,790.0116 1145,841 c -18.0037,18.00366 -35.2419,36.78101 -53.0146,55 -11.5475,11.83752 -25.3832,23.02063 -34.4375,37 -17.082,26.37341 -27.2978,59.99219 -39.1513,89 -6.4117,15.6909 -12.6347,31.5525 -19.62652,47 -3.01129,6.6531 -7.06354,14 1.22992,18 v 3 c -6.30792,2.1626 -8.95099,7.5984 -12.31561,13 -6.69287,10.7449 -12.96656,21.9012 -19.05548,33 -2.27674,4.1499 -9.47547,12.6626 -5.02472,17.3318 4.74542,4.9784 14.26111,-2.6155 18.39581,-5.3349 12.85077,-8.4515 41.298,-19.4923 46,-34.9969 12.0928,4.5342 18.9358,-1.0096 30,-6.9166 12.5984,-6.7262 25.3719,-13.1151 38,-19.7855 24.4148,-12.8967 52.1509,-24.6105 73.9993,-41.6622 11.563,-9.0241 20.9514,-21.085 31.04,-31.6357 21.6428,-22.63403 42.8189,-45.85815 64.9607,-68 183.1754,-183.17542 357.8142,-374.81421 541,-558 41.8311,-41.83105 81.1715,-86.17151 123,-128 23.097,-23.09705 48.724,-47.12903 42.385,-83 -7.5362,-42.64612 -52.0697,-72.05688 -94.385,-62.57483 -8.0688,1.80811 -15.3732,5.84985 -22,10.73071 -3.0084,2.21582 -6.3453,6.52369 -10,7.51392 -4.2866,1.1615 -13.603,-5.46118 -18,-6.97376 -10.2026,-3.50976 -21.5808,-3.51928 -32,-1.04174 -17.6689,4.20141 -29.4902,17.12768 -42,29.33105 -18.5394,18.08533 -36.7593,36.55835 -54.9961,55.01465 -17.0582,17.26355 -39.5875,35.08923 -53.3519,55 -6.9005,9.98181 -1.2847,23.40002 11.348,23.86719 16.9567,0.62695 35.2947,-25.39978 45.4236,-36.86719 19.6313,-22.22546 41.605,-43.02856 62.5764,-64 11.0328,-11.03284 23.5449,-30.78699 40,-33.67126 6.496,-1.13868 11.8038,1.60498 18,2.67126 m 49,103 -17,-13.71838 L 1821,215 c 11.3743,-14.87268 27.7247,-27.41748 40.8302,-40.91052 7.157,-7.36865 14.9116,-17.35181 25.1698,-20.30017 19.9868,-5.74451 46.3042,17.89868 42.6705,38.21069 -1.4317,8.00354 -8.3252,13.48096 -13.4159,19.28552 C 1902.9451,226.46143 1881.3132,240.02991 1872,258 m -78,-16 32,28.57556 L 1843,288 c -12.0046,9.14661 -21.4718,21.32764 -32.2607,31.78931 -30.0981,29.18481 -58.6978,60.01037 -87.7795,90.2146 C 1646.3162,489.60596 1570.0704,569.80383 1492,648 c -30.2966,30.34534 -58.8596,62.49292 -89.0039,93 -7.7964,7.89014 -15.2594,16.08093 -23.0107,24.00073 -2.6207,2.67749 -6.1847,7.70459 -9.9854,8.65357 -4.7323,1.18164 -11.7928,-7.67578 -15,-10.49915 C 1341.7023,751.44861 1328.0326,739.96802 1315,728 v -1 l 334,-339 100,-101 45,-45 m -325,1372 -37,-37 c -6.2968,1.7632 -11.6814,7.5071 -17,11.2909 -10.7743,7.6652 -21.8838,14.8606 -33,22.017 -29.0016,18.6705 -60.2943,34.3376 -92,47.8418 -114.7886,48.8912 -245.4651,60.4299 -368,41.426 C 821.4538,1683.9819 725.59833,1642.5933 643,1583.7091 593.39069,1548.3428 549.37952,1505.4962 511.39969,1458 351.23785,1257.7074 318.90775,970.42187 422.86111,737 455.18265,664.42371 500.14664,598.40637 555.03937,541 632.13745,460.37134 731.21826,399.88025 838,367.71997 c 38.68298,-11.65051 78.10596,-18.37134 118,-24.14819 83.3081,-12.06348 174.1682,-3.03907 255,20.00073 81.6211,23.26477 160.2206,59.42419 227,112.42749 h 1 l 26,-26 11,-13 c -29.9954,-20.49097 -58.1158,-42.35107 -90,-60.13806 -90.5042,-50.48877 -197.2913,-83.35327 -301,-87.90125 -34.9637,-1.53332 -69.9705,-3.27038 -105,-0.87121 -84.7395,5.80395 -167.17914,28.63574 -245,62.06091 C 648.24866,387.41138 569.86407,445.9884 505.91125,515 c -242.05163,261.19836 -264.05357,687.1594 -43.2492,969 57.50641,73.4027 127.80743,134.9709 208.33795,181.9884 74.78815,43.6648 158.74091,72.0214 244,86.2585 89.9643,15.0229 183.9716,11.7244 273,-7.5848 103.5476,-22.4584 196.7603,-66.7104 281,-130.6621 m -356,-682 25.0146,-25 51,-52 59.9854,-61 37,-39 c 15.4124,7.05945 29.1648,24.92273 42,36 3.1469,2.71582 12.7932,8.50952 12.7932,13.08948 0,4.29016 -7.043,9.16003 -9.7932,11.91052 -9.5032,9.50378 -18.6028,19.39905 -28.0146,29.00073 -31.8748,32.51758 -64.5649,64.67017 -95.0247,98.51319 -8.483,9.42517 -17.8823,17.95214 -26.2454,27.48608 -2.8401,3.23767 -7.3414,10.51978 -11.7299,11.53857 -4.9477,1.14856 -10.9382,-7.55139 -13.9854,-10.52392 -9.5237,-9.29041 -19.8281,-18.03418 -30,-26.60498 -4.4301,-3.73279 -11.2595,-7.74903 -13,-13.40967 m -27,28 44,41 16,16 c -25.6514,14.5981 -52.8638,26.9817 -79,40.7809 -8.3805,4.4247 -21.4993,15.8535 -31,15.2191 12.5293,-23.8125 23.1577,-49.0247 33.1782,-74 4.7079,-11.73425 8.3709,-29.6084 16.8218,-39 z"
       id="path1" />
  </g>
</svg>
